<?xml version="1.0" standalone="no"?>
<!DOCTYPE svg PUBLIC "-//W3C//DTD SVG 1.1//EN" "http://www.w3.org/Graphics/SVG/1.1/DTD/svg11.dtd">
<svg xmlns="http://www.w3.org/2000/svg" version="1.1" width="950" height="322" viewBox="0 0 950 322">
<path d="M0 0 C0.66 0 1.32 0 2 0 C2.5873291 1.09948975 2.5873291 1.09948975 3.18652344 2.22119141 C10.24538847 15.43029348 17.3193213 28.62944756 24.50878906 41.76806641 C28.36963444 48.82911217 32.18985694 55.91148252 36 63 C40.30797109 71.01403709 44.63496896 79.0168951 49 87 C53.96929364 96.08822687 58.88469821 105.20472243 63.7890625 114.328125 C67.50260134 121.23170823 71.23924191 128.122036 75 135 C79.96031373 144.07180372 84.87054716 153.16986972 89.76049805 162.27978516 C92.65498951 167.66685626 95.56635476 173.04327811 98.51953125 178.3984375 C99.07447266 179.40648437 99.62941406 180.41453125 100.20117188 181.453125 C101.24930777 183.35374475 102.30119454 185.25230246 103.35742188 187.1484375 C103.82341797 187.9940625 104.28941406 188.8396875 104.76953125 189.7109375 C105.17792236 190.44618652 105.58631348 191.18143555 106.00708008 191.93896484 C107 194 107 194 108 198 C85.89 198 63.78 198 41 198 C29.63503529 177.54306352 29.63503529 177.54306352 24.125 167.25 C19.56501249 158.75801333 14.98907578 150.2752358 10.375 141.8125 C9.64821045 140.47783691 9.64821045 140.47783691 8.90673828 139.11621094 C6.32170136 134.3804744 3.69453974 129.67433067 1 125 C-6.08913824 137.34386705 -12.99567697 149.75212451 -19.52807617 162.40014648 C-23.12460012 169.35398289 -26.81087974 176.25360529 -30.5625 183.125 C-31.06338135 184.0435376 -31.5642627 184.9620752 -32.08032227 185.90844727 C-34.70600985 190.70276997 -34.70600985 190.70276997 -36 193 C-36.38694031 193.85912491 -36.77388062 194.71824982 -37.17254639 195.60340881 C-39 198 -39 198 -41.90434265 198.60127258 C-43.6797216 198.584618 -43.6797216 198.584618 -45.4909668 198.56762695 C-46.1448941 198.56835709 -46.79882141 198.56908722 -47.4725647 198.56983948 C-49.63229579 198.56635811 -51.789865 198.52747859 -53.94921875 198.48828125 C-55.44707562 198.47895489 -56.94494774 198.47183794 -58.44282532 198.46684265 C-62.38386196 198.44775833 -66.32397611 198.39864687 -70.26464844 198.34332275 C-74.28633138 198.29216017 -78.3081635 198.26933511 -82.33007812 198.24414062 C-90.22047527 198.19052804 -98.11012286 198.10519963 -106 198 C-105.34457259 194.46188862 -104.53012859 191.76040543 -102.76953125 188.61328125 C-102.07053711 187.34967773 -102.07053711 187.34967773 -101.35742188 186.06054688 C-100.84759766 185.15369141 -100.33777344 184.24683594 -99.8125 183.3125 C-98.71400865 181.32988955 -97.61638833 179.34679631 -96.51953125 177.36328125 C-95.94283691 176.32381348 -95.36614258 175.2843457 -94.77197266 174.21337891 C-91.80462557 168.83225155 -88.90473188 163.41510341 -86 158 C-81.21220532 149.09136385 -76.39110092 140.20190649 -71.5390625 131.328125 C-67.66400417 124.23410286 -63.82734377 117.11986222 -60 110 C-55.2113349 101.09182824 -50.39110427 92.20191262 -45.5390625 83.328125 C-41.66400417 76.23410286 -37.82734377 69.11986222 -34 62 C-29.21955976 53.10712864 -24.40969816 44.23131754 -19.56323242 35.37426758 C-16.74748903 30.22236731 -13.95212972 25.05995072 -11.17578125 19.88671875 C-10.85358612 19.28667023 -10.53139099 18.6866217 -10.19943237 18.06838989 C-8.61551318 15.11786431 -7.03382374 12.16619078 -5.45507812 9.21289062 C-4.88853516 8.15650391 -4.32199219 7.10011719 -3.73828125 6.01171875 C-3.23337158 5.06772217 -2.72846191 4.12372559 -2.20825195 3.15112305 C-1 1 -1 1 0 0 Z " fill="#001743" transform="translate(161,59)"/>
<path d="M0 0 C8.58 0 17.16 0 26 0 C32.36784093 11.64848951 38.7143671 23.30695761 45 35 C49.49827563 43.36655635 54.01340909 51.7234513 58.5625 60.0625 C59.03880859 60.93583984 59.51511719 61.80917969 60.00585938 62.70898438 C62.47191467 67.3404039 62.47191467 67.3404039 65.21510506 71.80549431 C69.28135184 78.21567459 69.69197756 83.47208508 69.56762695 90.94555664 C69.56835709 92.10754578 69.56908722 93.26953491 69.56983948 94.46673584 C69.56637484 98.28169533 69.52756362 102.09541181 69.48828125 105.91015625 C69.47894911 108.56532354 69.47158879 111.22042329 69.46684265 113.87559509 C69.45135614 120.13350841 69.41039928 126.39098042 69.3600952 132.64870018 C69.30403875 139.77809397 69.27667451 146.90750982 69.25161803 154.03706944 C69.19947776 168.69163881 69.10785202 183.34573159 69 198 C59.43 198 49.86 198 40 198 C33.83869544 186.71664707 27.68392407 175.43003852 21.5625 164.125 C21.03140625 163.14442627 20.5003125 162.16385254 19.953125 161.15356445 C17.08465379 155.8557705 14.22018161 150.5558431 11.359375 145.25390625 C10.46883423 143.60527588 10.46883423 143.60527588 9.56030273 141.92333984 C8.41796398 139.80844142 7.27680024 137.69290778 6.13696289 135.57666016 C5.62383545 134.62710449 5.11070801 133.67754883 4.58203125 132.69921875 C4.13061768 131.86221436 3.6792041 131.02520996 3.21411133 130.1628418 C2.22180386 128.39512576 1.12448198 126.68672297 0 125 C-0.24609566 122.67868519 -0.24609566 122.67868519 -0.24050903 119.89375305 C-0.24325836 118.8378598 -0.24600769 117.78196655 -0.24884033 116.69407654 C-0.24164978 115.53602005 -0.23445923 114.37796356 -0.22705078 113.18481445 C-0.22734283 111.96518005 -0.22763489 110.74554565 -0.22793579 109.48895264 C-0.22678032 106.14409904 -0.21674268 102.79949164 -0.20278788 99.45468163 C-0.19029424 95.95931233 -0.1891111 92.46393982 -0.18673706 88.96855164 C-0.18051826 82.34937557 -0.16410206 75.73026549 -0.14403808 69.1111185 C-0.12169149 61.57553049 -0.11068878 54.03993935 -0.10064721 46.50432646 C-0.07973616 31.00283958 -0.04305497 15.5014436 0 0 Z " fill="#00B1FF" transform="translate(242,59)"/>
<path d="M0 0 C3.06871857 1.96825597 6.01023144 4.00442927 8.90625 6.22265625 C9.463125 5.82433594 10.02 5.42601562 10.59375 5.015625 C11.7384375 4.22091797 11.7384375 4.22091797 12.90625 3.41015625 C13.64875 2.88808594 14.39125 2.36601562 15.15625 1.828125 C21.58460437 -1.92479211 27.36259106 -3.31578329 34.78125 -3.21484375 C35.57063965 -3.20654541 36.3600293 -3.19824707 37.17333984 -3.18969727 C46.43457496 -2.92201499 53.33885984 -0.22600599 60.1484375 6.15625 C65.60296837 12.56835406 68.03749983 19.79773802 68.01977539 28.09277344 C68.01969986 29.27369568 68.01962433 30.45461792 68.01954651 31.67132568 C68.01438522 32.94123352 68.00922394 34.21114136 68.00390625 35.51953125 C68.00178383 37.47539154 68.00178383 37.47539154 67.99961853 39.47076416 C67.99580867 42.9296868 67.98599151 46.38856716 67.97491455 49.84747314 C67.96466746 53.38008034 67.96005899 56.9126946 67.95507812 60.4453125 C67.94489909 67.37113104 67.92532356 74.2968336 67.90625 81.22265625 C58.99625 81.22265625 50.08625 81.22265625 40.90625 81.22265625 C40.88046875 77.53851563 40.8546875 73.854375 40.828125 70.05859375 C40.78969497 66.48413504 40.74453757 62.9098201 40.69873047 59.33544922 C40.67053304 56.85439944 40.64931245 54.37326003 40.63525391 51.89208984 C40.61380838 48.32212478 40.56714658 44.75323597 40.515625 41.18359375 C40.51439636 40.07712494 40.51316772 38.97065613 40.51190186 37.83065796 C40.39554919 31.69029168 40.07259294 27.87061494 35.90625 23.22265625 C32.12225257 21.03808042 28.39986629 21.15684075 24.15625 21.72265625 C20.29307063 23.50566211 18.47470357 25.33905076 16.90625 29.22265625 C16.30634915 33.20828451 16.30134462 37.1584067 16.296875 41.18359375 C16.28033875 42.3292984 16.26380249 43.47500305 16.24676514 44.65542603 C16.19830852 48.30289077 16.17691832 51.94993861 16.15625 55.59765625 C16.12808853 58.07554178 16.09816087 60.55340791 16.06640625 63.03125 C15.98923554 69.09524347 15.9486904 75.15792291 15.90625 81.22265625 C6.99625 81.22265625 -1.91375 81.22265625 -11.09375 81.22265625 C-11.13113281 77.52691406 -11.16851562 73.83117187 -11.20703125 70.0234375 C-11.2532479 66.44240412 -11.30448121 62.8614752 -11.35620117 59.28051758 C-11.38944657 56.79262647 -11.41747966 54.30466001 -11.44018555 51.81665039 C-11.4737377 48.23941957 -11.52605592 44.66287906 -11.58203125 41.0859375 C-11.58842117 39.9743074 -11.5948111 38.86267731 -11.60139465 37.71736145 C-11.62118881 36.67666 -11.64098297 35.63595856 -11.66137695 34.5637207 C-11.67803154 33.19471367 -11.67803154 33.19471367 -11.69502258 31.79804993 C-12.17645591 28.68845605 -13.28905384 26.7786351 -15.09375 24.22265625 C-18.18238925 22.09279637 -21.50613486 21.15662524 -25.25390625 21.3125 C-29.004013 22.04850226 -30.78362501 22.91253126 -33.53125 25.66015625 C-35.73525609 29.27472624 -36.22587465 32.00172548 -36.29907227 36.15307617 C-36.31901749 37.15388718 -36.33896271 38.15469818 -36.35951233 39.18583679 C-36.37622482 40.2640419 -36.39293732 41.34224701 -36.41015625 42.453125 C-36.43093735 43.5586824 -36.45171844 44.66423981 -36.47312927 45.80329895 C-36.53857332 49.33885415 -36.59748603 52.87448431 -36.65625 56.41015625 C-36.6994401 58.80534633 -36.74305454 61.2005288 -36.78710938 63.59570312 C-36.89504889 69.47127842 -36.99416108 75.34690969 -37.09375 81.22265625 C-46.00375 81.22265625 -54.91375 81.22265625 -64.09375 81.22265625 C-64.09375 53.83265625 -64.09375 26.44265625 -64.09375 -1.77734375 C-55.18375 -1.77734375 -46.27375 -1.77734375 -37.09375 -1.77734375 C-36.76375 -0.12734375 -36.43375 1.52265625 -36.09375 3.22265625 C-35.248125 2.60390625 -34.4025 1.98515625 -33.53125 1.34765625 C-24.93377929 -4.94317598 -9.20357538 -4.93807218 0 0 Z " fill="#001743" transform="translate(438.09375,175.77734375)"/>
<path d="M0 0 C0.474375 0.433125 0.94875 0.86625 1.4375 1.3125 C1.7675 -0.3375 2.0975 -1.9875 2.4375 -3.6875 C11.0175 -3.6875 19.5975 -3.6875 28.4375 -3.6875 C28.4375 23.7025 28.4375 51.0925 28.4375 79.3125 C19.8575 79.3125 11.2775 79.3125 2.4375 79.3125 C2.1075 77.9925 1.7775 76.6725 1.4375 75.3125 C0.77363281 75.66183594 0.10976563 76.01117188 -0.57421875 76.37109375 C-1.45722656 76.82613281 -2.34023438 77.28117187 -3.25 77.75 C-4.12011719 78.20246094 -4.99023438 78.65492188 -5.88671875 79.12109375 C-14.36892848 82.89784407 -24.60508734 82.23731378 -33.24609375 79.296875 C-44.28370134 74.6063571 -51.90214734 66.82679859 -56.640625 55.8046875 C-61.16361348 42.72349534 -60.78381884 28.81256717 -55 16.1875 C-49.5301291 5.97619137 -41.71658246 -0.55584021 -30.78125 -4.296875 C-20.55505631 -6.09726121 -8.83031137 -5.8150831 0 0 Z M-28.5 26.375 C-32.39400462 31.92100658 -32.4182944 37.73510872 -31.5625 44.3125 C-29.58365316 49.01654075 -26.90553359 52.2817998 -22.875 55.375 C-16.84433349 57.08179241 -10.34953303 57.63612801 -4.625 54.6875 C-0.48469676 51.47665259 1.78547658 48.26857025 3.4375 43.3125 C4.18021668 36.45759027 3.48992623 30.9964225 -0.5625 25.3125 C-4.59651446 21.38192181 -8.29571579 19.56911708 -13.875 18.9375 C-19.88794896 19.54898634 -24.51927484 21.774796 -28.5 26.375 Z " fill="#001743" transform="translate(575.5625,177.6875)"/>
<path d="M0 0 C0.9175708 0.00829834 1.8351416 0.01659668 2.78051758 0.02514648 C15.41556321 0.33892888 25.12866762 4.45190675 34.40234375 13.09375 C43.05467818 22.42858409 46.11501729 33.70706025 45.87109375 46.1328125 C45.0107974 57.68536351 40.0997243 67.93468618 31.59375 75.84375 C19.83027954 85.36655942 7.38577473 87.52482246 -7.375 86.4375 C-19.55657854 84.49025882 -30.25427128 78.14170082 -37.9453125 68.4609375 C-44.38135226 58.78760829 -46.81358004 46.93305145 -44.87890625 35.5078125 C-41.79082186 21.79462421 -35.25937915 12.61100648 -23.546875 5.015625 C-15.88059017 1.20136506 -8.51070633 -0.10003329 0 0 Z M-14.3125 31.5 C-18.22074524 37.06628868 -18.10250577 42.83977528 -17.375 49.4375 C-15.5761684 54.44680235 -12.39278038 58.42437981 -7.53125 60.8125 C-1.53062359 62.551812 4.50987953 62.45729022 10.125 59.75 C14.35250594 55.83955701 17.38343527 52.65681458 17.828125 46.73046875 C18.05276845 38.60567407 18.05276845 38.60567407 14.625 31.4375 C10.08309643 26.79685939 6.8730209 24.7498097 0.375 24.125 C-5.68172265 24.62972689 -10.3133091 26.87845663 -14.3125 31.5 Z " fill="#001743" transform="translate(772.375,172.5625)"/>
<path d="M0 0 C7.19683493 3.96730746 13.69345094 9.76746153 16.9375 17.4375 C18.98661122 24.90313966 19.20039419 31.85091771 19.1328125 39.56640625 C19.1299826 40.79665024 19.12715271 42.02689423 19.12423706 43.29441833 C19.11310547 47.1963808 19.08801358 51.09810774 19.0625 55 C19.05132534 57.65689768 19.0433369 60.31379315 19.03515625 62.97070312 C19.01489682 69.4597976 18.97573372 75.94838735 18.9375 82.4375 C10.0275 82.4375 1.1175 82.4375 -8.0625 82.4375 C-8.11857422 77.25353516 -8.11857422 77.25353516 -8.17578125 71.96484375 C-8.22203605 68.60548696 -8.27325546 65.24623984 -8.32495117 61.88696289 C-8.35813748 59.55825505 -8.38618888 57.22946798 -8.40893555 54.90063477 C-8.44259669 51.54669543 -8.49491999 48.19347794 -8.55078125 44.83984375 C-8.55717117 43.80415756 -8.5635611 42.76847137 -8.57014465 41.70140076 C-8.68788738 35.86910721 -9.21222969 31.57143881 -12.0625 26.4375 C-15.48670659 23.66111628 -18.67000722 22.60975462 -23.0625 22.4375 C-27.30619958 23.34110143 -30.26654611 24.43613865 -33 27.875 C-34.61003083 31.75801553 -35.1904774 35.09913022 -35.26782227 39.29785156 C-35.28776749 40.25854553 -35.30771271 41.2192395 -35.32826233 42.20904541 C-35.34497482 43.23834167 -35.36168732 44.26763794 -35.37890625 45.328125 C-35.39968735 46.38787537 -35.42046844 47.44762573 -35.44187927 48.53948975 C-35.50722186 51.92209438 -35.56618881 55.30477612 -35.625 58.6875 C-35.66819975 60.98177878 -35.71181451 63.27604979 -35.75585938 65.5703125 C-35.86366793 71.19263048 -35.96285553 76.81500766 -36.0625 82.4375 C-44.6425 82.4375 -53.2225 82.4375 -62.0625 82.4375 C-62.0625 55.0475 -62.0625 27.6575 -62.0625 -0.5625 C-53.4825 -0.5625 -44.9025 -0.5625 -36.0625 -0.5625 C-35.7325 1.0875 -35.4025 2.7375 -35.0625 4.4375 C-34.37542969 4.08816406 -33.68835938 3.73882812 -32.98046875 3.37890625 C-32.07941406 2.92386719 -31.17835938 2.46882812 -30.25 2 C-29.35667969 1.54753906 -28.46335937 1.09507812 -27.54296875 0.62890625 C-19.94000677 -3.02291013 -7.90998541 -3.25296412 0 0 Z " fill="#001743" transform="translate(892.0625,174.5625)"/>
<path d="M0 0 C8.91 0 17.82 0 27 0 C27 10.89 27 21.78 27 33 C33.27 33 39.54 33 46 33 C46 40.59 46 48.18 46 56 C39.73 56 33.46 56 27 56 C27 75.8 27 95.6 27 116 C18.09 116 9.18 116 0 116 C0 96.2 0 76.4 0 56 C-5.94 56 -11.88 56 -18 56 C-18 48.41 -18 40.82 -18 33 C-12.06 33 -6.12 33 0 33 C0 22.11 0 11.22 0 0 Z " fill="#001743" transform="translate(633,141)"/>
<path d="M0 0 C27.06 0 54.12 0 82 0 C80.66021526 4.01935421 79.61791035 6.98674969 77.63671875 10.5546875 C77.16886963 11.40401855 76.70102051 12.25334961 76.21899414 13.12841797 C75.71360107 14.03479004 75.20820801 14.94116211 74.6875 15.875 C73.59592296 17.85392888 72.50479245 19.83310411 71.4140625 21.8125 C70.84977539 22.8334375 70.28548828 23.854375 69.70410156 24.90625 C66.96365473 29.88145663 64.263368 34.87822992 61.5625 39.875 C60.48705575 41.86202062 59.41153419 43.8489994 58.3359375 45.8359375 C57.79549805 46.83463867 57.25505859 47.83333984 56.69824219 48.86230469 C53.69615068 54.40900969 50.69166645 59.95441863 47.6875 65.5 C46.58722956 67.53124457 45.48696817 69.56249405 44.38671875 71.59375 C43.59114583 73.0625 42.79557292 74.53125 42 76 C38.16564502 74.72188167 37.94543999 73.57681427 36.1015625 70.05859375 C35.54645996 69.01219727 34.99135742 67.96580078 34.41943359 66.88769531 C33.82727051 65.74913086 33.23510742 64.61056641 32.625 63.4375 C32.00056 62.25432897 31.37505723 61.07171827 30.74853516 59.88964844 C29.45818269 57.45360629 28.17201891 55.01542299 26.88867188 52.57568359 C24.0958126 47.2761245 21.2345562 42.01377738 18.375 36.75 C17.58790649 35.2944873 17.58790649 35.2944873 16.78491211 33.80957031 C14.05481591 28.76383131 11.30262568 23.73156382 8.51953125 18.71484375 C7.96023926 17.70260742 7.40094727 16.69037109 6.82470703 15.64746094 C5.75680405 13.71676369 4.68379402 11.78887983 3.60498047 9.86425781 C3.1307666 9.00541992 2.65655273 8.14658203 2.16796875 7.26171875 C1.74797607 6.50850342 1.3279834 5.75528809 0.89526367 4.97924805 C0 3 0 3 0 0 Z " fill="#FF0097" transform="translate(270,38)"/>
<path d="M0 0 C2.88310863 2.6816587 4.82106695 5.13900416 6.59375 8.6484375 C7.06031006 9.55972412 7.52687012 10.47101074 8.00756836 11.40991211 C8.5000708 12.38839111 8.99257324 13.36687012 9.5 14.375 C10.5724735 16.46834297 11.64673705 18.56076968 12.72265625 20.65234375 C13.26809082 21.71437012 13.81352539 22.77639648 14.37548828 23.87060547 C16.82888038 28.59672207 19.37540147 33.26964878 21.9375 37.9375 C22.42130127 38.82074951 22.90510254 39.70399902 23.40356445 40.61401367 C24.4033991 42.43886374 25.40365016 44.26348572 26.40429688 46.08789062 C29.34196021 51.44903632 32.26708172 56.81694469 35.1875 62.1875 C35.75267334 63.22189209 36.31784668 64.25628418 36.90014648 65.32202148 C37.42165283 66.28180908 37.94315918 67.24159668 38.48046875 68.23046875 C38.94348389 69.08020264 39.40649902 69.92993652 39.88354492 70.80541992 C41 73 41 73 42 76 C14.94 76 -12.12 76 -40 76 C-38.66021526 71.98064579 -37.61791035 69.01325031 -35.63671875 65.4453125 C-35.16886963 64.59598145 -34.70102051 63.74665039 -34.21899414 62.87158203 C-33.71360107 61.96520996 -33.20820801 61.05883789 -32.6875 60.125 C-31.59592296 58.14607112 -30.50479245 56.16689589 -29.4140625 54.1875 C-28.84977539 53.1665625 -28.28548828 52.145625 -27.70410156 51.09375 C-24.96365473 46.11854337 -22.263368 41.12177008 -19.5625 36.125 C-18.48705575 34.13797938 -17.41153419 32.1510006 -16.3359375 30.1640625 C-15.79549805 29.16536133 -15.25505859 28.16666016 -14.69824219 27.13769531 C-11.69615068 21.59099031 -8.69166645 16.04558137 -5.6875 10.5 C-4.58722956 8.46875543 -3.48696817 6.43750595 -2.38671875 4.40625 C-1.59114583 2.9375 -0.79557292 1.46875 0 0 Z " fill="#00B1FF" transform="translate(161,208)"/>
<path d="M0 0 C8.91 0 17.82 0 27 0 C27 27.39 27 54.78 27 83 C18.09 83 9.18 83 0 83 C0 55.61 0 28.22 0 0 Z " fill="#001743" transform="translate(689,174)"/>
<path d="M0 0 C9.9 0 19.8 0 30 0 C30 18.15 30 36.3 30 55 C27.34678338 52.34678338 26.04284521 50.53216304 24.3203125 47.30078125 C23.55412598 45.87427246 23.55412598 45.87427246 22.77246094 44.41894531 C22.22879883 43.39381836 21.68513672 42.36869141 21.125 41.3125 C19.96647275 39.14696049 18.80760825 36.98160137 17.6484375 34.81640625 C17.0512793 33.69766113 16.45412109 32.57891602 15.83886719 31.42626953 C14.00669017 28.01246545 12.15217548 24.61185085 10.2890625 21.21484375 C9.39936768 19.58905396 9.39936768 19.58905396 8.49169922 17.93041992 C7.34785776 15.84171475 6.20113655 13.75458352 5.05126953 11.66918945 C4.53419434 10.72132568 4.01711914 9.77346191 3.484375 8.796875 C3.02772461 7.96510742 2.57107422 7.13333984 2.10058594 6.27636719 C1 4 1 4 0 0 Z " fill="#08AEFD" transform="translate(281,59)"/>
<path d="M0 0 C3.95316505 3.37181725 6.23954857 5.98432324 7.0625 11.1875 C7.4663681 17.26571487 5.54594762 21.14288655 1.625 25.75 C-2.03372333 28.51233612 -5.80119955 28.45197937 -10.25 28.234375 C-15.01626929 27.46836744 -17.59299164 25.2227092 -20.75 21.75 C-22.52130636 17.12492228 -22.52042523 12.69621757 -21.875 7.8125 C-17.54501911 -1.16820111 -9.12328185 -3.76831207 0 0 Z " fill="#001743" transform="translate(709.875,136.1875)"/>
<path d="M0 0 C0.76183594 -0.00515625 1.52367187 -0.0103125 2.30859375 -0.015625 C4.83455175 0.28206156 6.4139108 0.90024524 8.5625 2.25 C11.37532813 6.32375109 12.12118054 9.56239299 11.2578125 14.34765625 C9.93478213 17.96740788 7.80910489 19.36106625 4.5625 21.25 C-0.05620732 22.37024313 -2.7775065 21.63399622 -6.875 19.25 C-9.63163294 16.02272241 -10.3869443 14.37479198 -10.61328125 10.24609375 C-10.33308091 7.06426324 -9.18999634 4.8787445 -7.4375 2.25 C-4.32763793 0.17675862 -3.54641613 -0.02392186 0 0 Z " fill="#FF0097" transform="translate(340.4375,235.75)"/>
</svg>